:FULLY-SPECIFIED
:FORCE-ALL-JOINTS-BE-3DOF
:DEGREES
1020
root 0.245668 13.5564 -35.3871 372.271 -28.1217 342.263
lfemur -70.0343 36.1287 -4.09042
ltibia 82.223 0 0
lfoot -12.7352 -9.23243 0
ltoes -4.87979 0 0
rfemur 10.3761 -8.72575 8.77626
rtibia 36.2196 0 0
rfoot -22.7561 -26.079 0
rtoes -31.3309 0 0
lowerback 10.1627 -0.905699 5.4696
upperback -1.8683 0.0167822 8.24706
thorax -7.75126 -0.0684368 5.75965
lowerneck -4.78018 8.34263 3.44114
upperneck 7.98697 10.9928 -1.06512
head 3.712 5.50242 -0.403249
lclavicle -6.22002e-14 3.22879e-15 0
lhumerus 83.9435 -11.6102 27.0828
lradius 95.1706 0 0
lwrist 9.74263 0 0
lhand -35.7383 31.116 0
lfingers 7.12502 0 0
lthumb -8.85729 60.9118 0
rclavicle -6.22002e-14 3.22879e-15 0
rhumerus -77.5998 23.0178 -95.0582
rradius 112.016 0 0
rwrist -63.043 0 0
rhand -10.2003 -25.086 0
rfingers 7.12502 0 0
rthumb 15.7908 -54.4619 0
1021
root 0.245029 13.5526 -35.3791 372.275 -28.128 342.278
lfemur -70.0572 36.1431 -4.11169
ltibia 82.2907 0 0
lfoot -12.8103 -9.14232 0
ltoes -5.05021 0 0
rfemur 10.3972 -8.71949 8.74484
rtibia 36.2032 0 0
rfoot -22.7429 -26.0968 0
rtoes -31.3349 0 0
lowerback 10.1539 -0.892709 5.44194
upperback -1.87294 0.028836 8.22657
thorax -7.75143 -0.061592 5.75041
lowerneck -4.79522 8.33997 3.43657
upperneck 7.98068 10.9881 -1.05326
head 3.71147 5.50032 -0.398433
lclavicle -6.18166e-14 5.46029e-15 0
lhumerus 83.7368 -10.6304 27.3966
lradius 94.938 0 0
lwrist 9.50153 0 0
lhand -35.7651 30.9705 0
lfingers 7.12502 0 0
lthumb -8.88312 60.7646 0
rclavicle -6.18166e-14 5.46029e-15 0
rhumerus -77.6034 23.0266 -95.0715
rradius 111.993 0 0
rwrist -63.0809 0 0
rhand -10.2109 -25.0702 0
rfingers 7.12502 0 0
rthumb 15.7806 -54.4469 0
1022
root 0.24439 13.5487 -35.371 372.28 -28.1348 342.294
lfemur -70.0803 36.1545 -4.13236
ltibia 82.3585 0 0
lfoot -12.8849 -9.0425 0
ltoes -5.23269 0 0
rfemur 10.4159 -8.71396 8.71258
rtibia 36.1882 0 0
rfoot -22.7279 -26.1155 0
rtoes -31.3429 0 0
lowerback 10.1476 -0.879878 5.4145
upperback -1.87684 0.0408898 8.20605
thorax -7.75226 -0.0547638 5.74105
lowerneck -4.81009 8.33713 3.43168
upperneck 7.9732 10.9832 -1.04173
head 3.71048 5.49811 -0.393725
lclavicle -6.12857e-14 7.62488e-15 0
lhumerus 83.561 -9.70216 27.6883
lradius 94.7213 0 0
lwrist 9.28273 0 0
lhand -35.7911 30.837 0
lfingers 7.12502 0 0
lthumb -8.90816 60.6296 0
rclavicle -6.12857e-14 7.62488e-15 0
rhumerus -77.606 23.0343 -95.0842
rradius 111.971 0 0
rwrist -63.1195 0 0
rhand -10.2195 -25.0578 0
rfingers 7.12502 0 0
rthumb 15.7723 -54.4352 0
1023
root 0.243751 13.5449 -35.363 372.285 -28.142 342.31
lfemur -70.1039 36.1629 -4.15239
ltibia 82.4264 0 0
lfoot -12.959 -8.93255 0
ltoes -5.4277 0 0
rfemur 10.4321 -8.70918 8.67942
rtibia 36.1746 0 0
rfoot -22.711 -26.1352 0
rtoes -31.3551 0 0
lowerback 10.144 -0.867243 5.3873
upperback -1.87997 0.0529112 8.18552
thorax -7.7538 -0.0479685 5.73162
lowerneck -4.82478 8.33411 3.42646
upperneck 7.96452 10.9781 -1.03056
head 3.70904 5.49578 -0.389133
lclavicle -6.06017e-14 9.7171e-15 0
lhumerus 83.4197 -8.82882 27.9553
lradius 94.5227 0 0
lwrist 9.0878 0 0
lhand -35.8164 30.7163 0
lfingers 7.12502 0 0
lthumb -8.93257 60.5075 0
rclavicle -6.06017e-14 9.7171e-15 0
rhumerus -77.6076 23.0408 -95.0964
rradius 111.949 0 0
rwrist -63.1585 0 0
rhand -10.2259 -25.0492 0
rfingers 7.12502 0 0
rthumb 15.7662 -54.4271 0
1024
root 0.243113 13.541 -35.355 372.291 -28.1497 342.326
lfemur -70.1279 36.1681 -4.17176
ltibia 82.4944 0 0
lfoot -13.0327 -8.81202 0
ltoes -5.6357 0 0
rfemur 10.4458 -8.70519 8.64531
rtibia 36.1625 0 0
rfoot -22.6921 -26.1558 0
rtoes -31.3717 0 0
lowerback 10.1431 -0.854839 5.36036
upperback -1.88228 0.0648679 8.16505
thorax -7.75607 -0.0412221 5.72218
lowerneck -4.83927 8.33092 3.4209
upperneck 7.95461 10.9728 -1.01978
head 3.70713 5.49334 -0.384666
lclavicle -5.97589e-14 1.17315e-14 0
lhumerus 83.3162 -8.01392 28.1949
lradius 94.3445 0 0
lwrist 8.91833 0 0
lhand -35.8412 30.6094 0
lfingers 7.12502 0 0
lthumb -8.95651 60.3992 0
rclavicle -5.97589e-14 1.17315e-14 0
rhumerus -77.6081 23.0461 -95.108
rradius 111.928 0 0
rwrist -63.198 0 0
rhand -10.2299 -25.0445 0
rfingers 7.12502 0 0
rthumb 15.7622 -54.4227 0
1025
root 0.242474 13.5372 -35.347 372.298 -28.158 342.343
lfemur -70.1523 36.1699 -4.19046
ltibia 82.5627 0 0
lfoot -13.1059 -8.68047 0
ltoes -5.85715 0 0
rfemur 10.4568 -8.70204 8.61019
rtibia 36.152 0 0
rfoot -22.6711 -26.1774 0
rtoes -31.3929 0 0
lowerback 10.1452 -0.842702 5.33368
upperback -1.88374 0.0767274 8.14468
thorax -7.75913 -0.0345408 5.71278
lowerneck -4.85356 8.32754 3.41499
upperneck 7.94347 10.9673 -1.00942
head 3.70474 5.49079 -0.380333
lclavicle -5.87512e-14 1.36627e-14 0
lhumerus 83.2539 -7.26095 28.4045
lradius 94.189 0 0
lwrist 8.77588 0 0
lhand -35.8657 30.517 0
lfingers 7.12502 0 0
lthumb -8.98015 60.3058 0
rclavicle -5.87512e-14 1.36627e-14 0
rhumerus -77.6075 23.0502 -95.1188
rradius 111.909 0 0
rwrist -63.2378 0 0
rhand -10.2316 -25.0439 0
rfingers 7.12502 0 0
rthumb 15.7607 -54.4222 0
